<svg xmlns="http://www.w3.org/2000/svg" width="368" height="155" fill="none" viewBox="0 0 368 155">
    <g clip-path="url(#clip0)" filter="url(#filter0_d)">
        <g filter="url(#filter1_d)">
            <rect width="352" height="93" x="8" y="50" fill="#fff" rx="6"/>
        </g>
        <path fill="#424556" d="M63.23 114.197h-1.805L60.878 117H59.9l.547-2.803h-1.634v-.936h1.812l.472-2.42h-1.764v-.95h1.948l.56-2.844h.978l-.56 2.844h1.805l.56-2.844h.984l-.56 2.844h1.394v.95h-1.579l-.471 2.42h1.538v.936h-1.716L63.667 117h-.984l.547-2.803zm-1.627-.936h1.804l.472-2.42h-1.805l-.471 2.42zM68.206 117v-6.419h-1.169v-.977h1.17v-.759c0-.793.211-1.406.635-1.839.424-.433 1.023-.65 1.798-.65.291 0 .58.039.868.117l-.069 1.025c-.214-.041-.442-.061-.683-.061-.41 0-.727.12-.95.362-.224.237-.335.579-.335 1.025v.78h1.579v.977h-1.58V117h-1.264zm8.812 0c-.073-.146-.133-.406-.178-.779-.588.61-1.29.916-2.106.916-.729 0-1.328-.205-1.797-.616-.465-.414-.698-.938-.698-1.572 0-.77.292-1.367.875-1.791.588-.428 1.413-.642 2.475-.642h1.23v-.581c0-.442-.132-.793-.396-1.053-.264-.264-.654-.397-1.17-.397-.45 0-.829.114-1.134.342-.305.228-.458.504-.458.827H72.39c0-.369.13-.724.39-1.066.264-.346.62-.62 1.066-.82.45-.201.945-.301 1.483-.301.852 0 1.52.214 2.003.642.483.424.734 1.01.752 1.757v3.405c0 .679.087 1.219.26 1.62V117h-1.326zm-2.1-.964c.397 0 .773-.102 1.129-.307.355-.206.613-.472.772-.8v-1.518h-.99c-1.55 0-2.325.454-2.325 1.36 0 .397.132.707.396.93.265.223.604.335 1.019.335zm6.522.964h-1.264v-10.5h1.264V117zm6.337-1.962c0-.342-.13-.606-.39-.793-.255-.191-.703-.355-1.346-.492-.638-.137-1.146-.301-1.524-.492-.374-.192-.652-.42-.834-.684-.178-.264-.267-.579-.267-.943 0-.606.255-1.119.766-1.538.515-.42 1.17-.629 1.968-.629.839 0 1.518.216 2.037.649.525.433.787.987.787 1.661h-1.272c0-.346-.148-.645-.444-.895-.292-.251-.661-.376-1.108-.376-.46 0-.82.1-1.08.301-.26.2-.39.462-.39.786 0 .305.121.535.363.69.241.155.677.303 1.306.445.633.141 1.146.309 1.538.505.392.196.681.433.868.711.191.274.287.609.287 1.005 0 .661-.264 1.192-.793 1.593-.529.396-1.215.595-2.058.595-.592 0-1.116-.105-1.572-.315-.456-.209-.813-.501-1.073-.875-.255-.378-.383-.786-.383-1.223h1.265c.023.423.191.761.506 1.011.319.246.738.369 1.257.369.479 0 .862-.095 1.149-.287.291-.196.437-.455.437-.779zm5.982 2.099c-1.003 0-1.819-.328-2.448-.985-.628-.66-.943-1.542-.943-2.645v-.233c0-.733.14-1.387.417-1.962.283-.578.675-1.029 1.176-1.353.506-.328 1.053-.492 1.64-.492.962 0 1.71.317 2.243.95.533.633.8 1.54.8 2.721v.526h-5.011c.018.729.23 1.319.636 1.771.41.446.93.669 1.558.669.447 0 .825-.091 1.135-.273.31-.182.581-.424.813-.725l.773.602c-.62.952-1.55 1.429-2.79 1.429zm-.157-6.631c-.51 0-.94.187-1.286.56-.346.37-.56.889-.642 1.559h3.705v-.096c-.037-.642-.21-1.139-.52-1.49-.31-.355-.729-.533-1.257-.533zm12.714 8.34h-1.018v-11.799h1.018v11.799zm13.378-4.649h-1.804l-.547 2.803h-.978l.547-2.803h-1.634v-.936h1.812l.472-2.42h-1.764v-.95h1.948l.561-2.844h.977l-.56 2.844h1.804l.561-2.844h.984l-.56 2.844h1.394v.95h-1.579l-.472 2.42h1.539v.936h-1.716l-.547 2.803h-.985l.547-2.803zm-1.627-.936h1.805l.472-2.42h-1.805l-.472 2.42zm5.674-.021c0-1.135.269-2.046.807-2.734.538-.693 1.242-1.039 2.112-1.039.866 0 1.552.296 2.058.888V106.5h1.264V117h-1.162l-.061-.793c-.506.62-1.21.93-2.113.93-.856 0-1.556-.351-2.098-1.053-.538-.702-.807-1.618-.807-2.748v-.096zm1.265.144c0 .838.173 1.495.519 1.969.347.473.825.71 1.436.71.802 0 1.388-.36 1.757-1.08v-3.397c-.378-.697-.96-1.046-1.743-1.046-.62 0-1.103.239-1.45.718-.346.478-.519 1.187-.519 2.126zm8.319 3.616h-1.264v-7.396h1.264V117zm-1.367-9.358c0-.205.062-.379.185-.52.127-.141.314-.212.56-.212.246 0 .433.071.561.212.127.141.191.315.191.52 0 .205-.064.376-.191.512-.128.137-.315.205-.561.205-.246 0-.433-.068-.56-.205-.123-.136-.185-.307-.185-.512zm7.704 7.396c0-.342-.13-.606-.39-.793-.255-.191-.704-.355-1.346-.492-.638-.137-1.146-.301-1.525-.492-.373-.192-.651-.42-.834-.684-.177-.264-.266-.579-.266-.943 0-.606.255-1.119.765-1.538.515-.42 1.172-.629 1.969-.629.839 0 1.518.216 2.037.649.524.433.786.987.786 1.661h-1.271c0-.346-.148-.645-.444-.895-.292-.251-.661-.376-1.108-.376-.46 0-.82.1-1.08.301-.26.2-.39.462-.39.786 0 .305.121.535.363.69.241.155.676.303 1.305.445.634.141 1.147.309 1.538.505.392.196.682.433.869.711.191.274.287.609.287 1.005 0 .661-.265 1.192-.793 1.593-.529.396-1.215.595-2.058.595-.592 0-1.116-.105-1.572-.315-.456-.209-.814-.501-1.073-.875-.256-.378-.383-.786-.383-1.223h1.264c.023.423.192.761.506 1.011.319.246.739.369 1.258.369.479 0 .862-.095 1.149-.287.291-.196.437-.455.437-.779zm7.479 1.962c-.073-.146-.133-.406-.178-.779-.588.61-1.29.916-2.106.916-.729 0-1.328-.205-1.797-.616-.465-.414-.698-.938-.698-1.572 0-.77.292-1.367.875-1.791.588-.428 1.413-.642 2.475-.642h1.23v-.581c0-.442-.132-.793-.396-1.053-.264-.264-.654-.397-1.169-.397-.451 0-.829.114-1.135.342-.305.228-.458.504-.458.827h-1.271c0-.369.13-.724.389-1.066.265-.346.62-.62 1.067-.82.451-.201.945-.301 1.483-.301.852 0 1.52.214 2.003.642.483.424.734 1.01.752 1.757v3.405c0 .679.087 1.219.26 1.62V117h-1.326zm-2.099-.964c.396 0 .772-.102 1.128-.307.355-.206.613-.472.772-.8v-1.518h-.991c-1.549 0-2.324.454-2.324 1.36 0 .397.132.707.396.93.265.223.604.335 1.019.335zm4.847-2.796c0-1.153.266-2.069.799-2.748.534-.683 1.24-1.025 2.12-1.025.902 0 1.606.319 2.112.957l.061-.82h1.156v7.218c0 .957-.285 1.712-.855 2.263-.565.551-1.326.827-2.283.827-.533 0-1.055-.114-1.565-.342-.511-.228-.9-.54-1.169-.936l.656-.759c.542.67 1.205 1.005 1.989 1.005.615 0 1.094-.173 1.436-.52.346-.346.519-.834.519-1.463v-.635c-.506.583-1.196.875-2.071.875-.866 0-1.568-.349-2.106-1.046-.533-.697-.799-1.648-.799-2.851zm1.271.144c0 .834.171 1.49.513 1.969.342.473.82.71 1.435.71.798 0 1.384-.362 1.757-1.086V111.6c-.387-.707-.968-1.06-1.743-1.06-.615 0-1.096.239-1.442.718-.347.478-.52 1.187-.52 2.126zm10.466-2.646c-.191-.032-.399-.048-.622-.048-.83 0-1.392.354-1.689 1.06V117h-1.264v-7.396h1.23l.021.854c.414-.661 1.002-.991 1.763-.991.247 0 .433.032.561.095v1.176zm4.102 6.399c-1.003 0-1.819-.328-2.448-.985-.629-.66-.943-1.542-.943-2.645v-.233c0-.733.139-1.387.417-1.962.282-.578.674-1.029 1.176-1.353.506-.328 1.052-.492 1.64-.492.962 0 1.709.317 2.242.95.534.633.8 1.54.8 2.721v.526h-5.01c.018.729.23 1.319.635 1.771.41.446.93.669 1.559.669.447 0 .825-.091 1.135-.273.31-.182.581-.424.813-.725l.773.602c-.62.952-1.55 1.429-2.789 1.429zm-.158-6.631c-.51 0-.938.187-1.285.56-.346.37-.56.889-.642 1.559h3.705v-.096c-.037-.642-.21-1.139-.52-1.49-.31-.355-.729-.533-1.258-.533zm7.581 6.631c-1.002 0-1.818-.328-2.447-.985-.629-.66-.943-1.542-.943-2.645v-.233c0-.733.139-1.387.417-1.962.282-.578.674-1.029 1.176-1.353.505-.328 1.052-.492 1.64-.492.962 0 1.709.317 2.242.95.534.633.8 1.54.8 2.721v.526h-5.011c.019.729.231 1.319.636 1.771.41.446.93.669 1.559.669.446 0 .825-.091 1.134-.273.31-.182.582-.424.814-.725l.772.602c-.619.952-1.549 1.429-2.789 1.429zm-.157-6.631c-.51 0-.939.187-1.285.56-.346.37-.561.889-.643 1.559h3.705v-.096c-.036-.642-.209-1.139-.519-1.49-.31-.355-.729-.533-1.258-.533zm12.715 8.34h-1.019v-11.799h1.019v11.799zm13.378-4.649h-1.805l-.547 2.803h-.977l.547-2.803h-1.634v-.936h1.811l.472-2.42h-1.764v-.95h1.949l.56-2.844h.978l-.561 2.844h1.805l.56-2.844h.985l-.561 2.844h1.395v.95h-1.579l-.472 2.42h1.538v.936h-1.716l-.547 2.803h-.984l.547-2.803zm-1.627-.936h1.805l.471-2.42h-1.804l-.472 2.42zm5.674-.021c0-1.135.269-2.046.806-2.734.538-.693 1.242-1.039 2.113-1.039.866 0 1.551.296 2.057.888V106.5h1.265V117h-1.162l-.062-.793c-.505.62-1.21.93-2.112.93-.857 0-1.556-.351-2.099-1.053-.537-.702-.806-1.618-.806-2.748v-.096zm1.264.144c0 .838.174 1.495.52 1.969.346.473.825.71 1.436.71.802 0 1.387-.36 1.756-1.08v-3.397c-.378-.697-.959-1.046-1.743-1.046-.62 0-1.103.239-1.449.718-.346.478-.52 1.187-.52 2.126zm8.32 3.616h-1.265v-7.396h1.265V117zm-1.367-9.358c0-.205.061-.379.184-.52.128-.141.315-.212.561-.212.246 0 .433.071.56.212.128.141.192.315.192.52 0 .205-.064.376-.192.512-.127.137-.314.205-.56.205-.246 0-.433-.068-.561-.205-.123-.136-.184-.307-.184-.512zm7.704 7.396c0-.342-.13-.606-.39-.793-.255-.191-.704-.355-1.347-.492-.638-.137-1.146-.301-1.524-.492-.374-.192-.652-.42-.834-.684-.178-.264-.267-.579-.267-.943 0-.606.256-1.119.766-1.538.515-.42 1.171-.629 1.969-.629.838 0 1.517.216 2.037.649.524.433.786.987.786 1.661h-1.272c0-.346-.148-.645-.444-.895-.292-.251-.661-.376-1.107-.376-.461 0-.821.1-1.08.301-.26.2-.39.462-.39.786 0 .305.121.535.362.69.242.155.677.303 1.306.445.633.141 1.146.309 1.538.505.392.196.681.433.868.711.192.274.287.609.287 1.005 0 .661-.264 1.192-.793 1.593-.528.396-1.214.595-2.057.595-.593 0-1.117-.105-1.573-.315-.455-.209-.813-.501-1.073-.875-.255-.378-.383-.786-.383-1.223h1.265c.023.423.191.761.506 1.011.319.246.738.369 1.258.369.478 0 .861-.095 1.148-.287.292-.196.438-.455.438-.779zm4.286 1.962h-1.265v-10.5h1.265V117zm3.404 0h-1.265v-7.396h1.265V117zm-1.367-9.358c0-.205.061-.379.184-.52.128-.141.315-.212.561-.212.246 0 .433.071.561.212.127.141.191.315.191.52 0 .205-.064.376-.191.512-.128.137-.315.205-.561.205-.246 0-.433-.068-.561-.205-.123-.136-.184-.307-.184-.512zm5.462 5.933l-.793.827V117h-1.265v-10.5h1.265v6.351l.677-.814 2.303-2.433h1.538l-2.877 3.089L234.9 117h-1.483l-2.577-3.425zm7.964 3.562c-1.003 0-1.819-.328-2.448-.985-.628-.66-.943-1.542-.943-2.645v-.233c0-.733.139-1.387.417-1.962.283-.578.675-1.029 1.176-1.353.506-.328 1.053-.492 1.64-.492.962 0 1.709.317 2.243.95.533.633.799 1.54.799 2.721v.526h-5.01c.018.729.23 1.319.635 1.771.411.446.93.669 1.559.669.447 0 .825-.091 1.135-.273.31-.182.581-.424.813-.725l.773.602c-.62.952-1.55 1.429-2.789 1.429zm-.158-6.631c-.51 0-.938.187-1.285.56-.346.37-.56.889-.642 1.559h3.705v-.096c-.037-.642-.21-1.139-.52-1.49-.31-.355-.729-.533-1.258-.533z"/>
        <path fill="url(#paint0_linear)" d="M21 22.5c0-3.314 2.686-6 6-6h19.631c1.522 0 2.987-.579 4.099-1.618l9.671-9.047c2.307-2.158 5.891-2.158 8.198 0l9.671 9.047c1.112 1.04 2.577 1.618 4.099 1.618H338c3.314 0 6 2.686 6 6v54c0 3.314-2.686 6-6 6H27c-3.314 0-6-2.686-6-6v-54z"/>
        <path fill="#0D373D" fill-opacity=".3" d="M102 17h81v65h-81V17z"/>
        <path fill="#00CF6E" d="M70.118 48.184v12.085h4.431c.25 0 .451-.202.451-.451V48.635c0-.25-.202-.451-.45-.451h-4.432z"/>
        <path fill="#FFC197" d="M46.984 46.955v1.07c0 .852.69 1.543 1.543 1.543h.876c-.742.053-1.329.67-1.329 1.425v1.196c0 .79.641 1.431 1.432 1.431h1.226c-.713 0-1.292.578-1.292 1.292v1.03c0 .714.579 1.293 1.292 1.293h1.189c-.714 0-1.292.579-1.292 1.293v.769c0 .713.578 1.292 1.292 1.292h17.36V48.095c-2.005 0-3.616-.201-4.907-.55-4.133-1.116-4.993-3.733-4.993-6.027v-4.223c0-.274-.111-.523-.29-.703-.18-.18-.428-.291-.703-.291-1.768 0-3.201 1.433-3.201 3.2v4.137c0 .98-.794 1.773-1.773 1.773h-4.886c-.853 0-1.544.691-1.544 1.544z"/>
        <path fill="#00CF6E" d="M66.266 61.717h5.297c.25 0 .451-.202.451-.451V47.187c0-.249-.201-.45-.45-.45h-5.297c-.25 0-.451.201-.451.45v14.079c0 .249.201.45.45.45z"/>
        <g clip-path="url(#clip1)">
            <path fill="#F44336" d="M132.882 49.816V37.731h-4.431c-.249 0-.451.202-.451.451v11.183c0 .25.202.451.451.451h4.431z"/>
            <path fill="#FFC197" d="M156.016 51.045v-1.07c0-.852-.691-1.543-1.543-1.543h-.876c.742-.053 1.329-.67 1.329-1.425V45.81c0-.79-.641-1.431-1.432-1.431h-1.226c.713 0 1.292-.578 1.292-1.292v-1.03c0-.714-.579-1.293-1.292-1.293h-1.189c.714 0 1.292-.579 1.292-1.293v-.769c0-.713-.578-1.292-1.292-1.292H133.72v12.494c2.004 0 3.615.201 4.906.55 4.133 1.116 4.993 3.733 4.993 6.027v4.223c0 .274.111.523.29.703.18.18.428.291.703.291 1.768 0 3.201-1.433 3.201-3.2v-4.137c0-.98.794-1.773 1.773-1.773h4.887c.852 0 1.543-.691 1.543-1.544z"/>
            <path fill="#F44336" d="M136.734 36.283h-5.297c-.25 0-.451.202-.451.451v14.079c0 .249.202.45.451.45h5.297c.249 0 .451-.201.451-.45V36.734c0-.249-.202-.45-.451-.45z"/>
        </g>
        <rect width="64" height="29" x="280" y="98" fill="#00CF6E" rx="3"/>
        <path fill="#FAFAFA" d="M303.48 114.762c0-.332-.117-.586-.351-.762-.234-.18-.656-.367-1.266-.562-.609-.2-1.092-.395-1.447-.586-.969-.524-1.453-1.229-1.453-2.116 0-.461.129-.871.387-1.23.261-.363.634-.647 1.119-.85.488-.203 1.035-.304 1.64-.304.61 0 1.153.111 1.629.334.477.218.846.529 1.108.931.265.403.398.86.398 1.371h-1.758c0-.39-.123-.693-.369-.908-.246-.219-.592-.328-1.037-.328-.43 0-.764.092-1.002.275-.238.18-.357.418-.357.715 0 .278.138.51.416.697.281.188.693.364 1.236.528 1 .301 1.729.674 2.186 1.119.457.445.685 1 .685 1.664 0 .738-.279 1.318-.838 1.74-.558.418-1.31.627-2.256.627-.656 0-1.254-.119-1.793-.357-.539-.242-.951-.572-1.236-.99-.281-.418-.422-.903-.422-1.454h1.764c0 .942.562 1.413 1.687 1.413.418 0 .745-.084.979-.252.234-.172.351-.411.351-.715zm8.092-1.459h-3.375v2.285h3.961V117h-5.719v-8.531h5.707v1.424h-3.949v2.033h3.375v1.377zm8.555 3.697h-1.758l-3.422-5.613V117h-1.758v-8.531h1.758l3.428 5.625v-5.625h1.752V117zm1.535 0v-8.531h2.625c.75 0 1.42.17 2.01.51.594.335 1.057.816 1.389 1.441.332.621.498 1.328.498 2.121v.393c0 .793-.164 1.498-.493 2.115-.324.617-.783 1.096-1.377 1.435-.593.34-1.263.512-2.009.516h-2.643zm1.758-7.107v5.695h.85c.687 0 1.212-.225 1.576-.674.363-.449.549-1.092.556-1.928v-.451c0-.867-.179-1.523-.539-1.969-.359-.449-.884-.673-1.576-.673h-.867z"/>
        <path fill="#fff" d="M234.491 60.268l.7 3.733-3.325-2.216c-1.166.466-2.45.7-3.85.7-4.142 0-7.642-2.275-8.692-5.367-.175-.584-.292-1.225-.292-1.867 0-4.025 4.026-7.292 8.984-7.292 2.334 0 4.434.7 6.009 1.867 1.808 1.341 2.975 3.267 2.975 5.425 0 1.925-.933 3.675-2.509 5.017z"/>
        <path fill="#CDD6E0" d="M233.387 51.984h-10.792v1.459h10.792v-1.459zM235.547 54.727h-14.992v1.458h14.992v-1.458zM233.387 57.643h-10.792V59.1h10.792v-1.458z"/>
        <path fill="#F2F2F2" d="M221.426 36C214.542 36 209 40.55 209 46.209c0 2.217.875 4.258 2.333 5.892l-1.225 5.483 4.551-2.858c1.925 1.05 4.258 1.633 6.767 1.633 6.883 0 12.425-4.55 12.425-10.209.058-5.6-5.542-10.15-12.425-10.15z"/>
        <path fill="#84DBFF" d="M214.837 48.25c1.128 0 2.042-.915 2.042-2.042 0-1.128-.914-2.042-2.042-2.042-1.127 0-2.041.914-2.041 2.042 0 1.127.914 2.041 2.041 2.041zM221.428 48.25c1.128 0 2.042-.915 2.042-2.042 0-1.128-.914-2.042-2.042-2.042-1.127 0-2.041.914-2.041 2.042 0 1.127.914 2.041 2.041 2.041zM228.08 48.25c1.128 0 2.042-.915 2.042-2.042 0-1.128-.914-2.042-2.042-2.042-1.127 0-2.042.914-2.042 2.042 0 1.127.915 2.041 2.042 2.041z"/>
        <path fill="#fff" d="M309.289 43c-3.181 0-5.693 2.579-5.693 5.76 0 3.18 2.613 5.76 5.794 5.76.032 0 .08-.004.112-.005-1.258 1.002-2.838 1.605-4.567 1.605-.795 0-1.436.645-1.436 1.44 0 .795.512 1.44 1.308 1.44 5.646 0 10.107-4.594 10.107-10.24v-.004c0-3.18-2.445-5.756-5.625-5.756zM295.798 43c-3.181 0-5.697 2.579-5.697 5.76 0 3.18 2.61 5.76 5.792 5.76.031 0 .078-.004.11-.005-1.258 1.002-2.838 1.605-4.567 1.605-.795 0-1.436.645-1.436 1.44 0 .795.52 1.44 1.315 1.44 5.647 0 10.116-4.594 10.116-10.24v-.004c0-3.18-2.453-5.756-5.633-5.756z"/>
    </g>
    <defs>
        <clipPath id="clip0">
            <path fill="#fff" d="M0 0H352V141H0z" transform="translate(8 2)"/>
        </clipPath>
        <clipPath id="clip1">
            <path fill="#fff" d="M0 0H28.017V28.017H0z" transform="matrix(1 0 0 -1 128 63)"/>
        </clipPath>
        <filter id="filter0_d" width="368" height="157" x="0" y="-2" color-interpolation-filters="sRGB" filterUnits="userSpaceOnUse">
            <feFlood flood-opacity="0" result="BackgroundImageFix"/>
            <feColorMatrix in="SourceAlpha" values="0 0 0 0 0 0 0 0 0 0 0 0 0 0 0 0 0 0 127 0"/>
            <feOffset dy="4"/>
            <feGaussianBlur stdDeviation="4"/>
            <feColorMatrix values="0 0 0 0 0 0 0 0 0 0 0 0 0 0 0 0 0 0 0.2 0"/>
            <feBlend in2="BackgroundImageFix" result="effect1_dropShadow"/>
            <feBlend in="SourceGraphic" in2="effect1_dropShadow" result="shape"/>
        </filter>
        <filter id="filter1_d" width="362" height="103" x="3" y="48" color-interpolation-filters="sRGB" filterUnits="userSpaceOnUse">
            <feFlood flood-opacity="0" result="BackgroundImageFix"/>
            <feColorMatrix in="SourceAlpha" values="0 0 0 0 0 0 0 0 0 0 0 0 0 0 0 0 0 0 127 0"/>
            <feOffset dy="3"/>
            <feGaussianBlur stdDeviation="2.5"/>
            <feColorMatrix values="0 0 0 0 0.4375 0 0 0 0 0.419635 0 0 0 0 0.419635 0 0 0 0.3 0"/>
            <feBlend in2="BackgroundImageFix" result="effect1_dropShadow"/>
            <feBlend in="SourceGraphic" in2="effect1_dropShadow" result="shape"/>
        </filter>
        <linearGradient id="paint0_linear" x1="179.325" x2="142.279" y1="-36.322" y2="112.658" gradientUnits="userSpaceOnUse">
            <stop stop-color="#1BB5D8"/>
            <stop offset=".976" stop-color="#4066EC"/>
        </linearGradient>
    </defs>
</svg>
