<svg xmlns="http://www.w3.org/2000/svg" viewBox="0 0 36 45" x="0px" y="0px"><title>Монтажная область 56</title><path d="M18,0A18,18,0,1,0,36,18,18,18,0,0,0,18,0Zm9.17,19.83H19.83v7.34a1.83,1.83,0,0,1-3.66,0V19.83H8.83a1.83,1.83,0,0,1,0-3.66h7.34V8.83a1.83,1.83,0,1,1,3.66,0v7.34h7.34a1.83,1.83,0,0,1,0,3.66Z"/><text x="0" y="51" fill="#000000" font-size="5px" font-weight="bold" font-family="'Helvetica Neue', Helvetica, Arial-Unicode, Arial, Sans-serif">Created by Chintuza</text><text x="0" y="56" fill="#000000" font-size="5px" font-weight="bold" font-family="'Helvetica Neue', Helvetica, Arial-Unicode, Arial, Sans-serif">from the Noun Project</text></svg>